<?xml version="1.0" encoding="UTF-8"?>
<svg width="180pt" version="1.1" xmlns="http://www.w3.org/2000/svg" height="130pt" viewBox="0 0 180 130" xmlns:xlink="http://www.w3.org/1999/xlink">
 <defs>
  <path id="GlArialMT73" d="M0.932656 10 L0.932656 2.84172 L1.87984 2.84172 L1.87984 10 L0.932656 10 Z"/>
  <path id="GlArialMT110" d="M0.659219 10 L0.659219 4.81438 L1.45016 4.81438 L1.45016 5.55172 C1.45016 5.55172 2.02156 4.69719 3.10062 4.69719 C3.10062 4.69719 3.56937 4.69719 3.96234 4.86578 C3.96234 4.86578 4.35547 5.03422 4.55078 5.30766 C4.55078 5.30766 4.74609 5.58109 4.82422 5.95703 C4.82422 5.95703 4.87312 6.20109 4.87312 6.81156 L4.87312 10 L3.99422 10 L3.99422 6.84563 C3.99422 6.84563 3.99422 6.30859 3.89156 6.0425 C3.89156 6.0425 3.78906 5.77641 3.52781 5.61766 C3.52781 5.61766 3.26656 5.45891 2.915 5.45891 C2.915 5.45891 2.35359 5.45891 1.94578 5.81547 C1.94578 5.81547 1.53812 6.17188 1.53812 7.16797 L1.53812 10 L0.659219 10 Z"/>
  <path id="GlArialMT116" d="M2.57812 9.21391 L2.70516 9.99016 C2.70516 9.99016 2.33406 10.0684 2.04109 10.0684 C2.04109 10.0684 1.5625 10.0684 1.29875 9.91703 C1.29875 9.91703 1.03516 9.76562 0.927656 9.51906 C0.927656 9.51906 0.820312 9.2725 0.820312 8.48141 L0.820312 5.49797 L0.175781 5.49797 L0.175781 4.81438 L0.820312 4.81438 L0.820312 3.53031 L1.69437 3.00297 L1.69437 4.81438 L2.57812 4.81438 L2.57812 5.49797 L1.69437 5.49797 L1.69437 8.53031 C1.69437 8.53031 1.69437 8.90625 1.74078 9.01375 C1.74078 9.01375 1.78719 9.12109 1.89203 9.18453 C1.89203 9.18453 1.99703 9.24797 2.19234 9.24797 C2.19234 9.24797 2.33891 9.24797 2.57812 9.21391 Z"/>
  <path id="GlArialMT101" d="M4.20906 8.33 L5.11719 8.44234 C5.11719 8.44234 4.90234 9.23828 4.32125 9.67781 C4.32125 9.67781 3.74031 10.1172 2.83688 10.1172 C2.83688 10.1172 1.69922 10.1172 1.03266 9.41656 C1.03266 9.41656 0.36625 8.71578 0.36625 7.45109 C0.36625 7.45109 0.36625 6.1425 1.04 5.41984 C1.04 5.41984 1.71391 4.69719 2.78812 4.69719 C2.78812 4.69719 3.82812 4.69719 4.48734 5.40531 C4.48734 5.40531 5.14656 6.11328 5.14656 7.3975 C5.14656 7.3975 5.14656 7.47562 5.14156 7.63187 L1.27438 7.63187 C1.27438 7.63187 1.32328 8.48625 1.75781 8.94047 C1.75781 8.94047 2.19234 9.39453 2.84187 9.39453 C2.84187 9.39453 3.32516 9.39453 3.66688 9.14062 C3.66688 9.14062 4.00875 8.88672 4.20906 8.33 L4.20906 8.33 Z M1.32328 6.90922 L4.21875 6.90922 C4.21875 6.90922 4.16016 6.25484 3.88672 5.92766 C3.88672 5.92766 3.46687 5.41984 2.79781 5.41984 C2.79781 5.41984 2.19234 5.41984 1.77969 5.82516 C1.77969 5.82516 1.36719 6.23047 1.32328 6.90922 Z"/>
  <path id="GlArialMT114" d="M0.649375 10 L0.649375 4.81438 L1.44047 4.81438 L1.44047 5.60062 C1.44047 5.60062 1.74313 5.04875 1.99953 4.87297 C1.99953 4.87297 2.25594 4.69719 2.56344 4.69719 C2.56344 4.69719 3.00781 4.69719 3.46687 4.98047 L3.16406 5.79594 C3.16406 5.79594 2.84187 5.60547 2.51953 5.60547 C2.51953 5.60547 2.23141 5.60547 2.00188 5.77891 C2.00188 5.77891 1.7725 5.95219 1.67484 6.25969 C1.67484 6.25969 1.52828 6.72844 1.52828 7.28516 L1.52828 10 L0.649375 10 Z"/>
  <path id="GlArialMT97" d="M4.04297 9.36031 C4.04297 9.36031 3.55469 9.77531 3.10297 9.94625 C3.10297 9.94625 2.65141 10.1172 2.13375 10.1172 C2.13375 10.1172 1.27937 10.1172 0.820312 9.69969 C0.820312 9.69969 0.361406 9.28219 0.361406 8.63281 C0.361406 8.63281 0.361406 8.25188 0.534687 7.93703 C0.534687 7.93703 0.707969 7.62203 0.98875 7.43172 C0.98875 7.43172 1.26953 7.24125 1.62109 7.14359 C1.62109 7.14359 1.87984 7.07516 2.40234 7.01172 C2.40234 7.01172 3.46687 6.88469 3.96969 6.70891 C3.96969 6.70891 3.97469 6.52828 3.97469 6.47953 C3.97469 6.47953 3.97469 5.94234 3.72562 5.72266 C3.72562 5.72266 3.38875 5.42484 2.72469 5.42484 C2.72469 5.42484 2.10453 5.42484 1.80906 5.64219 C1.80906 5.64219 1.51375 5.85938 1.37203 6.41109 L0.512656 6.29391 C0.512656 6.29391 0.629844 5.74219 0.898438 5.40281 C0.898438 5.40281 1.16703 5.06344 1.67484 4.88031 C1.67484 4.88031 2.18266 4.69719 2.85156 4.69719 C2.85156 4.69719 3.51562 4.69719 3.93063 4.85344 C3.93063 4.85344 4.34578 5.00969 4.54109 5.24656 C4.54109 5.24656 4.73641 5.48344 4.81453 5.84469 C4.81453 5.84469 4.85844 6.06937 4.85844 6.65531 L4.85844 7.82719 C4.85844 7.82719 4.85844 9.05266 4.91453 9.3775 C4.91453 9.3775 4.97078 9.70219 5.13672 10 L4.21875 10 C4.21875 10 4.08203 9.72656 4.04297 9.36031 L4.04297 9.36031 Z M3.96969 7.3975 C3.96969 7.3975 3.49125 7.59281 2.53422 7.72953 C2.53422 7.72953 1.99219 7.80766 1.7675 7.90531 C1.7675 7.90531 1.54297 8.00297 1.42094 8.19094 C1.42094 8.19094 1.29891 8.37891 1.29891 8.60844 C1.29891 8.60844 1.29891 8.96 1.565 9.19438 C1.565 9.19438 1.83109 9.42875 2.34375 9.42875 C2.34375 9.42875 2.85156 9.42875 3.24703 9.20656 C3.24703 9.20656 3.64266 8.98438 3.82812 8.59859 C3.82812 8.59859 3.96969 8.30078 3.96969 7.71969 L3.96969 7.3975 Z"/>
  <path id="GlArialMT105" d="M0.664062 3.8525 L0.664062 2.84172 L1.54297 2.84172 L1.54297 3.8525 L0.664062 3.8525 L0.664062 3.8525 Z M0.664062 10 L0.664062 4.81438 L1.54297 4.81438 L1.54297 10 L0.664062 10 Z"/>
  <path id="GlArialMT111" d="M0.332031 7.40719 C0.332031 7.40719 0.332031 5.96672 1.13281 5.27344 C1.13281 5.27344 1.80172 4.69719 2.76375 4.69719 C2.76375 4.69719 3.83297 4.69719 4.51172 5.39797 C4.51172 5.39797 5.19047 6.09859 5.19047 7.33391 C5.19047 7.33391 5.19047 8.335 4.89016 8.90875 C4.89016 8.90875 4.58984 9.48234 4.01609 9.79984 C4.01609 9.79984 3.44234 10.1172 2.76375 10.1172 C2.76375 10.1172 1.67484 10.1172 1.00344 9.41891 C1.00344 9.41891 0.332031 8.72063 0.332031 7.40719 L0.332031 7.40719 Z M1.23531 7.40719 C1.23531 7.40719 1.23531 8.40328 1.66984 8.89891 C1.66984 8.89891 2.10453 9.39453 2.76375 9.39453 C2.76375 9.39453 3.41797 9.39453 3.8525 8.89656 C3.8525 8.89656 4.28719 8.39844 4.28719 7.37797 C4.28719 7.37797 4.28719 6.41594 3.85016 5.92047 C3.85016 5.92047 3.41312 5.42484 2.76375 5.42484 C2.76375 5.42484 2.10453 5.42484 1.66984 5.91797 C1.66984 5.91797 1.23531 6.41109 1.23531 7.40719 Z"/>
  <path id="GlArialMT108" d="M0.639687 10 L0.639687 2.84172 L1.51859 2.84172 L1.51859 10 L0.639687 10 Z"/>
  <path id="GlArialMT65" d="M-0.0146875 10 L2.73438 2.84172 L3.75484 2.84172 L6.68453 10 L5.60547 10 L4.77047 7.83203 L1.77734 7.83203 L0.99125 10 L-0.0146875 10 L-0.0146875 10 Z M2.05078 7.06047 L4.4775 7.06047 L3.73047 5.07812 C3.73047 5.07812 3.38875 4.17484 3.22266 3.59375 C3.22266 3.59375 3.08594 4.28219 2.83688 4.96094 L2.05078 7.06047 Z"/>
  <path id="GlArialMT103" d="M0.498125 10.4297 L1.3525 10.5567 C1.3525 10.5567 1.40625 10.9522 1.65047 11.1328 C1.65047 11.1328 1.9775 11.377 2.54391 11.377 C2.54391 11.377 3.15437 11.377 3.48641 11.1328 C3.48641 11.1328 3.81844 10.8887 3.93562 10.4492 C3.93562 10.4492 4.00391 10.1806 3.99906 9.32125 C3.99906 9.32125 3.42281 10 2.56344 10 C2.56344 10 1.49422 10 0.908281 9.22859 C0.908281 9.22859 0.322344 8.45703 0.322344 7.37797 C0.322344 7.37797 0.322344 6.63578 0.590781 6.00828 C0.590781 6.00828 0.859375 5.38078 1.36953 5.03906 C1.36953 5.03906 1.87984 4.69719 2.56844 4.69719 C2.56844 4.69719 3.48641 4.69719 4.08203 5.43938 L4.08203 4.81438 L4.89266 4.81438 L4.89266 9.29688 C4.89266 9.29688 4.89266 10.5078 4.64594 11.0131 C4.64594 11.0131 4.39938 11.5186 3.86469 11.8116 C3.86469 11.8116 3.33016 12.1045 2.54891 12.1045 C2.54891 12.1045 1.62109 12.1045 1.04984 11.687 C1.04984 11.687 0.478594 11.2695 0.498125 10.4297 L0.498125 10.4297 Z M1.22562 7.31438 C1.22562 7.31438 1.22562 8.335 1.63078 8.80375 C1.63078 8.80375 2.03609 9.2725 2.64656 9.2725 C2.64656 9.2725 3.25203 9.2725 3.66219 8.80625 C3.66219 8.80625 4.07234 8.33984 4.07234 7.34375 C4.07234 7.34375 4.07234 6.39156 3.64984 5.90828 C3.64984 5.90828 3.2275 5.42484 2.63187 5.42484 C2.63187 5.42484 2.04594 5.42484 1.63578 5.90094 C1.63578 5.90094 1.22562 6.37688 1.22562 7.31438 Z"/>
  <path id="GlArialMT99" d="M4.04297 8.10063 L4.90719 8.21281 C4.90719 8.21281 4.76562 9.10641 4.18203 9.61187 C4.18203 9.61187 3.59859 10.1172 2.74906 10.1172 C2.74906 10.1172 1.68453 10.1172 1.0375 9.42141 C1.0375 9.42141 0.390625 8.72563 0.390625 7.42672 C0.390625 7.42672 0.390625 6.58688 0.668906 5.95703 C0.668906 5.95703 0.947344 5.32719 1.51609 5.01219 C1.51609 5.01219 2.085 4.69719 2.75391 4.69719 C2.75391 4.69719 3.59859 4.69719 4.13563 5.12453 C4.13563 5.12453 4.67281 5.55172 4.82422 6.33781 L3.96969 6.46969 C3.96969 6.46969 3.84766 5.94719 3.5375 5.68359 C3.5375 5.68359 3.2275 5.41984 2.78812 5.41984 C2.78812 5.41984 2.12406 5.41984 1.70891 5.89594 C1.70891 5.89594 1.29391 6.37203 1.29391 7.40234 C1.29391 7.40234 1.29391 8.44719 1.69422 8.92094 C1.69422 8.92094 2.09469 9.39453 2.73922 9.39453 C2.73922 9.39453 3.25687 9.39453 3.60344 9.07719 C3.60344 9.07719 3.95016 8.75969 4.04297 8.10063 Z"/>
  <path id="GlArialMT121" d="M0.620156 11.997 L0.5225 11.1719 C0.5225 11.1719 0.810625 11.25 1.02547 11.25 C1.02547 11.25 1.31844 11.25 1.49422 11.1523 C1.49422 11.1523 1.67 11.0547 1.78219 10.8789 C1.78219 10.8789 1.86531 10.747 2.05078 10.2247 C2.05078 10.2247 2.07516 10.1514 2.12891 10.0098 L0.161094 4.81438 L1.10844 4.81438 L2.1875 7.81734 C2.1875 7.81734 2.3975 8.38859 2.56344 9.01859 C2.56344 9.01859 2.71484 8.41313 2.92484 7.83688 L4.03328 4.81438 L4.91219 4.81438 L2.93953 10.088 C2.93953 10.088 2.62203 10.9423 2.44625 11.2647 C2.44625 11.2647 2.21188 11.6992 1.90906 11.9019 C1.90906 11.9019 1.60641 12.1045 1.18656 12.1045 C1.18656 12.1045 0.932656 12.1045 0.620156 11.997 Z"/>
  <path id="GlArialMT102" d="M0.869219 10 L0.869219 5.49797 L0.0928125 5.49797 L0.0928125 4.81438 L0.869219 4.81438 L0.869219 4.26266 C0.869219 4.26266 0.869219 3.74016 0.961875 3.48625 C0.961875 3.48625 1.08891 3.14453 1.40875 2.93219 C1.40875 2.93219 1.72859 2.71969 2.30469 2.71969 C2.30469 2.71969 2.67578 2.71969 3.125 2.80766 L2.99313 3.57422 C2.99313 3.57422 2.71969 3.52531 2.47562 3.52531 C2.47562 3.52531 2.07516 3.52531 1.90906 3.69625 C1.90906 3.69625 1.74313 3.86719 1.74313 4.33594 L1.74313 4.81438 L2.75391 4.81438 L2.75391 5.49797 L1.74313 5.49797 L1.74313 10 L0.869219 10 Z"/>
  <path id="GlArialMT83" d="M0.449219 7.70016 L1.34281 7.62203 C1.34281 7.62203 1.40625 8.15922 1.63813 8.50344 C1.63813 8.50344 1.87016 8.84766 2.35844 9.06016 C2.35844 9.06016 2.84672 9.2725 3.45703 9.2725 C3.45703 9.2725 3.99906 9.2725 4.41406 9.11141 C4.41406 9.11141 4.82906 8.95016 5.03172 8.66938 C5.03172 8.66938 5.23438 8.38859 5.23438 8.05656 C5.23438 8.05656 5.23438 7.71969 5.03906 7.46828 C5.03906 7.46828 4.84375 7.21672 4.39453 7.04594 C4.39453 7.04594 4.10641 6.93359 3.12 6.69688 C3.12 6.69688 2.13375 6.46 1.73828 6.25 C1.73828 6.25 1.22562 5.98141 0.974063 5.58344 C0.974063 5.58344 0.722656 5.18547 0.722656 4.69234 C0.722656 4.69234 0.722656 4.15031 1.03031 3.67922 C1.03031 3.67922 1.33797 3.20797 1.92875 2.96391 C1.92875 2.96391 2.51953 2.71969 3.24219 2.71969 C3.24219 2.71969 4.03812 2.71969 4.64594 2.97609 C4.64594 2.97609 5.25391 3.23234 5.58109 3.73047 C5.58109 3.73047 5.90828 4.22844 5.93266 4.85844 L5.02438 4.92672 C5.02438 4.92672 4.95125 4.24797 4.52875 3.90141 C4.52875 3.90141 4.10641 3.55469 3.28125 3.55469 C3.28125 3.55469 2.42188 3.55469 2.02875 3.86969 C2.02875 3.86969 1.63578 4.18453 1.63578 4.62891 C1.63578 4.62891 1.63578 5.01469 1.91406 5.26359 C1.91406 5.26359 2.1875 5.51266 3.34219 5.77391 C3.34219 5.77391 4.49703 6.03516 4.92672 6.23047 C4.92672 6.23047 5.55172 6.51859 5.84953 6.96047 C5.84953 6.96047 6.1475 7.40234 6.1475 7.97844 C6.1475 7.97844 6.1475 8.54984 5.82031 9.05516 C5.82031 9.05516 5.49313 9.56047 4.88031 9.84125 C4.88031 9.84125 4.26766 10.122 3.50094 10.122 C3.50094 10.122 2.52937 10.122 1.8725 9.83891 C1.8725 9.83891 1.21578 9.55562 0.842187 8.98687 C0.842187 8.98687 0.46875 8.41797 0.449219 7.70016 Z"/>
  <path id="GlArialMT112" d="M0.659219 11.9873 L0.659219 4.81438 L1.46 4.81438 L1.46 5.48828 C1.46 5.48828 1.74313 5.09281 2.09953 4.895 C2.09953 4.895 2.45609 4.69719 2.96391 4.69719 C2.96391 4.69719 3.62797 4.69719 4.13578 5.03906 C4.13578 5.03906 4.64359 5.38078 4.90234 6.00344 C4.90234 6.00344 5.16109 6.62594 5.16109 7.36813 C5.16109 7.36813 5.16109 8.16406 4.87547 8.80125 C4.87547 8.80125 4.58984 9.43844 4.04531 9.77781 C4.04531 9.77781 3.50094 10.1172 2.90047 10.1172 C2.90047 10.1172 2.46094 10.1172 2.11172 9.93172 C2.11172 9.93172 1.76266 9.74609 1.53812 9.46281 L1.53812 11.9873 L0.659219 11.9873 L0.659219 11.9873 Z M1.45516 7.43656 C1.45516 7.43656 1.45516 8.4375 1.86031 8.91609 C1.86031 8.91609 2.26562 9.39453 2.84187 9.39453 C2.84187 9.39453 3.42781 9.39453 3.84516 8.89891 C3.84516 8.89891 4.26266 8.40328 4.26266 7.36328 C4.26266 7.36328 4.26266 6.37203 3.855 5.87891 C3.855 5.87891 3.44734 5.38578 2.88094 5.38578 C2.88094 5.38578 2.31937 5.38578 1.88719 5.91062 C1.88719 5.91062 1.45516 6.43547 1.45516 7.43656 Z"/>
  <path id="GlArialMT115" d="M0.307656 8.45219 L1.17672 8.31547 C1.17672 8.31547 1.25 8.83781 1.58438 9.11625 C1.58438 9.11625 1.91891 9.39453 2.51953 9.39453 C2.51953 9.39453 3.125 9.39453 3.41797 9.14797 C3.41797 9.14797 3.71094 8.90141 3.71094 8.56938 C3.71094 8.56938 3.71094 8.27141 3.45219 8.10063 C3.45219 8.10063 3.27156 7.98344 2.55375 7.80266 C2.55375 7.80266 1.58688 7.55859 1.21328 7.38047 C1.21328 7.38047 0.839844 7.20219 0.646875 6.88719 C0.646875 6.88719 0.454063 6.57219 0.454063 6.19141 C0.454063 6.19141 0.454063 5.84469 0.612812 5.54937 C0.612812 5.54937 0.771563 5.25391 1.045 5.05859 C1.045 5.05859 1.25 4.90719 1.60391 4.80219 C1.60391 4.80219 1.95797 4.69719 2.36328 4.69719 C2.36328 4.69719 2.97359 4.69719 3.435 4.87297 C3.435 4.87297 3.89656 5.04875 4.11625 5.34906 C4.11625 5.34906 4.33594 5.64938 4.41891 6.15234 L3.55953 6.26953 C3.55953 6.26953 3.50094 5.86906 3.22016 5.64453 C3.22016 5.64453 2.93953 5.41984 2.42672 5.41984 C2.42672 5.41984 1.82125 5.41984 1.5625 5.62016 C1.5625 5.62016 1.30375 5.82031 1.30375 6.08891 C1.30375 6.08891 1.30375 6.25969 1.41109 6.39641 C1.41109 6.39641 1.51859 6.53812 1.74812 6.63078 C1.74812 6.63078 1.87984 6.67969 2.52438 6.85547 C2.52438 6.85547 3.45703 7.10453 3.82563 7.26328 C3.82563 7.26328 4.19437 7.42188 4.40422 7.72469 C4.40422 7.72469 4.61422 8.02734 4.61422 8.47656 C4.61422 8.47656 4.61422 8.91594 4.35781 9.30422 C4.35781 9.30422 4.10156 9.69234 3.61813 9.90484 C3.61813 9.90484 3.13484 10.1172 2.52438 10.1172 C2.52438 10.1172 1.51375 10.1172 0.983906 9.69734 C0.983906 9.69734 0.454063 9.27734 0.307656 8.45219 Z"/>
  <path id="GlArial-BoldMT73" d="M0.683594 10 L0.683594 2.84172 L2.12891 2.84172 L2.12891 10 L0.683594 10 Z"/>
  <path id="GlArial-BoldMT65" d="M7.18266 10 L5.61031 10 L4.98531 8.37406 L2.12406 8.37406 L1.53328 10 L0 10 L2.78812 2.84172 L4.31641 2.84172 L7.18266 10 L7.18266 10 Z M4.52156 7.16797 L3.53516 4.51172 L2.56844 7.16797 L4.52156 7.16797 Z"/>
  <path id="GlArial-BoldMT83" d="M0.361406 7.67094 L1.76766 7.53422 C1.76766 7.53422 1.89453 8.24219 2.28266 8.57422 C2.28266 8.57422 2.67094 8.90625 3.33016 8.90625 C3.33016 8.90625 4.02828 8.90625 4.38234 8.61094 C4.38234 8.61094 4.73641 8.31547 4.73641 7.91984 C4.73641 7.91984 4.73641 7.66594 4.58734 7.48781 C4.58734 7.48781 4.43844 7.30953 4.06734 7.17766 C4.06734 7.17766 3.81344 7.08984 2.91016 6.86516 C2.91016 6.86516 1.74812 6.57719 1.27937 6.15719 C1.27937 6.15719 0.620156 5.56641 0.620156 4.71672 C0.620156 4.71672 0.620156 4.16984 0.930156 3.69391 C0.930156 3.69391 1.24031 3.21781 1.82375 2.96875 C1.82375 2.96875 2.40719 2.71969 3.2325 2.71969 C3.2325 2.71969 4.58016 2.71969 5.26125 3.31062 C5.26125 3.31062 5.94234 3.90141 5.97656 4.88766 L4.53125 4.95109 C4.53125 4.95109 4.43844 4.39938 4.13328 4.15766 C4.13328 4.15766 3.82812 3.91594 3.21781 3.91594 C3.21781 3.91594 2.58797 3.91594 2.23141 4.17484 C2.23141 4.17484 2.00203 4.34078 2.00203 4.61906 C2.00203 4.61906 2.00203 4.87297 2.21687 5.05375 C2.21687 5.05375 2.49031 5.28313 3.545 5.53219 C3.545 5.53219 4.59969 5.78125 5.105 6.04734 C5.105 6.04734 5.61031 6.31344 5.89594 6.77484 C5.89594 6.77484 6.18172 7.23625 6.18172 7.915 C6.18172 7.915 6.18172 8.53031 5.83984 9.0675 C5.83984 9.0675 5.49812 9.60453 4.87312 9.86578 C4.87312 9.86578 4.24812 10.127 3.31547 10.127 C3.31547 10.127 1.95797 10.127 1.23047 9.49953 C1.23047 9.49953 0.502969 8.87203 0.361406 7.67094 Z"/>
 </defs>
 <g id="Hintergrund">
  <g transform="translate(24, 17)">
   <use style="fill:#161413;stroke:none;" xlink:href="#GlArialMT73" transform="matrix(0.142577 -1.1915 1.1915 0.142577 -11.9639 45.3838)"/>
   <use style="fill:#161413;stroke:none;" xlink:href="#GlArialMT110" transform="matrix(0.412457 -1.12689 1.12689 0.412457 -10.5039 36.0116)"/>
   <use style="fill:#161413;stroke:none;" xlink:href="#GlArialMT116" transform="matrix(0.637238 -1.01682 1.01682 0.637238 -5.61105 24.4795)"/>
   <use style="fill:#161413;stroke:none;" xlink:href="#GlArialMT101" transform="matrix(0.808751 -0.886523 0.886523 0.808751 -0.718469 17.0815)"/>
   <use style="fill:#161413;stroke:none;" xlink:href="#GlArialMT114" transform="matrix(0.93819 -0.748197 0.748197 0.93819 7.59669 8.56739)"/>
   <use style="fill:#161413;stroke:none;" xlink:href="#GlArialMT110" transform="matrix(1.03118 -0.613731 0.613731 1.03118 14.7319 3.06883)"/>
   <use style="fill:#161413;stroke:none;" xlink:href="#GlArialMT97" transform="matrix(1.10548 -0.466818 0.466818 1.10548 24.8891 -2.69363)"/>
   <use style="fill:#161413;stroke:none;" xlink:href="#GlArialMT116" transform="matrix(1.14779 -0.350125 0.350125 1.14779 35.3818 -6.85939)"/>
   <use style="fill:#161413;stroke:none;" xlink:href="#GlArialMT105" transform="matrix(1.17042 -0.264806 0.264806 1.17042 42.6478 -8.96294)"/>
   <use style="fill:#161413;stroke:none;" xlink:href="#GlArialMT111" transform="matrix(1.18927 -0.160078 0.160078 1.18927 49.5711 -10.4928)"/>
   <use style="fill:#161413;stroke:none;" xlink:href="#GlArialMT110" transform="matrix(1.19954 -0.0333394 0.0333394 1.19954 60.7964 -11.8419)"/>
   <use style="fill:#161413;stroke:none;" xlink:href="#GlArialMT97" transform="matrix(1.19651 0.0914272 -0.0914272 1.19651 72.0768 -12.0051)"/>
   <use style="fill:#161413;stroke:none;" xlink:href="#GlArialMT108" transform="matrix(1.18419 0.19418 -0.19418 1.18419 83.0965 -10.9611)"/>
   <use style="fill:#161413;stroke:none;" xlink:href="#GlArialMT65" transform="matrix(1.09323 0.494824 -0.494824 1.09323 104.924 -5.40871)"/>
   <use style="fill:#161413;stroke:none;" xlink:href="#GlArialMT103" transform="matrix(1.00639 0.653595 -0.653595 1.00639 116.801 0.290614)"/>
   <use style="fill:#161413;stroke:none;" xlink:href="#GlArialMT101" transform="matrix(0.884615 0.810837 -0.810837 0.884615 126.728 7.07199)"/>
   <use style="fill:#161413;stroke:none;" xlink:href="#GlArialMT110" transform="matrix(0.706014 0.970332 -0.970332 0.706014 135.641 15.753)"/>
   <use style="fill:#161413;stroke:none;" xlink:href="#GlArialMT99" transform="matrix(0.462843 1.10715 -1.10715 0.462843 142.765 26.4476)"/>
   <use style="fill:#161413;stroke:none;" xlink:href="#GlArialMT121" transform="matrix(0.167161 1.1883 -1.1883 0.167161 147.005 38.1253)"/>
   <use style="fill:#161413;stroke:none;" xlink:href="#GlArialMT102" transform="matrix(-0.524985 1.07907 -1.07907 -0.524985 144.146 67.4013)"/>
   <use style="fill:#161413;stroke:none;" xlink:href="#GlArialMT111" transform="matrix(-0.724403 0.956682 -0.956682 -0.724403 139.96 75.4278)"/>
   <use style="fill:#161413;stroke:none;" xlink:href="#GlArialMT114" transform="matrix(-0.877669 0.81835 -0.81835 -0.877669 132.303 84.7815)"/>
   <use style="fill:#161413;stroke:none;" xlink:href="#GlArialMT83" transform="matrix(-1.10303 0.472561 -0.472561 -1.10303 112.141 99.2296)"/>
   <use style="fill:#161413;stroke:none;" xlink:href="#GlArialMT112" transform="matrix(-1.15542 0.32405 -0.32405 -1.15542 100.136 104.079)"/>
   <use style="fill:#161413;stroke:none;" xlink:href="#GlArialMT97" transform="matrix(-1.18466 0.191269 -0.191269 -1.18466 89.1133 106.985)"/>
   <use style="fill:#161413;stroke:none;" xlink:href="#GlArialMT99" transform="matrix(-1.19808 0.0678995 -0.0678995 -1.19808 77.9736 108.609)"/>
   <use style="fill:#161413;stroke:none;" xlink:href="#GlArialMT101" transform="matrix(-1.19885 -0.0525112 0.0525112 -1.19885 67.4149 109.079)"/>
   <use style="fill:#161413;stroke:none;" xlink:href="#GlArialMT65" transform="matrix(-1.14257 -0.366794 0.366794 -1.14257 41.0608 105.655)"/>
   <use style="fill:#161413;stroke:none;" xlink:href="#GlArialMT102" transform="matrix(-1.09388 -0.493373 0.493373 -1.09388 29.0568 101.491)"/>
   <use style="fill:#161413;stroke:none;" xlink:href="#GlArialMT102" transform="matrix(-1.04397 -0.591719 0.591719 -1.04397 21.9899 98.1675)"/>
   <use style="fill:#161413;stroke:none;" xlink:href="#GlArialMT97" transform="matrix(-0.960145 -0.719807 0.719807 -0.960145 14.8704 94.0316)"/>
   <use style="fill:#161413;stroke:none;" xlink:href="#GlArialMT105" transform="matrix(-0.849918 -0.847136 0.847136 -0.849918 5.73003 86.7263)"/>
   <use style="fill:#161413;stroke:none;" xlink:href="#GlArialMT114" transform="matrix(-0.728675 -0.953432 0.953432 -0.728675 0.443089 81.2214)"/>
   <use style="fill:#161413;stroke:none;" xlink:href="#GlArialMT115" transform="matrix(-0.530501 -1.07637 1.07637 -0.530501 -5.23503 73.3389)"/>
  </g>
  <g transform="translate(40, 48)">
   <use style="fill:#161413;stroke:none;" xlink:href="#GlArial-BoldMT73" transform="matrix(4.4 0 0 4.4 0 -11.9568)"/>
   <use style="fill:#161413;stroke:none;" xlink:href="#GlArial-BoldMT65" transform="matrix(4.4 0 0 4.4 12.2246 -11.9568)"/>
   <use style="fill:#161413;stroke:none;" xlink:href="#GlArial-BoldMT83" transform="matrix(4.4 0 0 4.4 44 -11.9568)"/>
   <use style="fill:#161413;stroke:none;" xlink:href="#GlArial-BoldMT65" transform="matrix(4.4 0 0 4.4 73.3477 -11.9568)"/>
   <path style="fill:none; stroke:none;" d="M0 0 L107.25 0 L107.25 46.25 L0 46.25 L0 0 Z"/>
  </g>
 </g>
</svg>
